<svg width="28" height="28" viewBox="0 0 24 24" fill="none" xmlns="http://www.w3.org/2000/svg">
<path d="M12.0001 19.056L11.7121 18.816C5.52009 13.776 3.84009 12 3.84009 9.11999C3.84009 6.71999 5.76009 4.79999 8.16009 4.79999C10.1281 4.79999 11.2321 5.90399 12.0001 6.76799C12.7681 5.90399 13.8721 4.79999 15.8401 4.79999C18.2401 4.79999 20.1601 6.71999 20.1601 9.11999C20.1601 12 18.4801 13.776 12.2881 18.816L12.0001 19.056ZM8.16009 5.75999C6.28809 5.75999 4.80009 7.24799 4.80009 9.11999C4.80009 11.568 6.33609 13.2 12.0001 17.808C17.6641 13.2 19.2001 11.568 19.2001 9.11999C19.2001 7.24799 17.7121 5.75999 15.8401 5.75999C14.1601 5.75999 13.2481 6.76799 12.5281 7.58399L12.0001 8.20799L11.4721 7.58399C10.7521 6.76799 9.84009 5.75999 8.16009 5.75999Z" fill="black"/>
</svg>
