<svg width="24" height="24" viewBox="0 0 24 24" fill="none" xmlns="http://www.w3.org/2000/svg">
<path d="M3.00003 13H4.00003V20C4.00003 21.103 4.89703 22 6.00003 22H18C19.103 22 20 21.103 20 20V13H21C21.1978 13 21.3911 12.9413 21.5555 12.8314C21.7199 12.7215 21.848 12.5654 21.9237 12.3827C21.9994 12.2 22.0192 11.9989 21.9806 11.805C21.942 11.611 21.8468 11.4329 21.707 11.293L12.707 2.293C12.6142 2.20005 12.504 2.12632 12.3827 2.076C12.2614 2.02569 12.1314 1.9998 12 1.9998C11.8687 1.9998 11.7387 2.02569 11.6173 2.076C11.496 2.12632 11.3858 2.20005 11.293 2.293L2.29303 11.293C2.15322 11.4329 2.05802 11.611 2.01945 11.805C1.98088 11.9989 2.00068 12.2 2.07635 12.3827C2.15202 12.5654 2.28016 12.7215 2.44457 12.8314C2.60898 12.9413 2.80228 13 3.00003 13ZM12 4.414L18 10.414V15L18.001 20H6.00003V10.415L12 4.414V4.414Z" fill="black"/>
<path d="M12 17C14.206 17 16 15.206 16 13C16 10.794 14.206 9 12 9C9.794 9 8 10.794 8 13C8 15.206 9.794 17 12 17ZM12 11C13.103 11 14 11.897 14 13C14 14.103 13.103 15 12 15C10.897 15 10 14.103 10 13C10 11.897 10.897 11 12 11Z" fill="black"/>
</svg>
