<svg width="24" height="24" viewBox="0 0 21 24" fill="none" xmlns="http://www.w3.org/2000/svg">
<g clip-path="url(#clip0)">
<path d="M10.1046 15.9111C10.1639 15.9309 10.2034 15.9704 10.2231 16.0296C10.2429 16.0889 10.233 16.1482 10.1935 16.2074L7.73423 18.6667C7.33917 19.0617 6.88485 19.3778 6.37127 19.6148C5.85769 19.8519 5.33423 19.9901 4.8009 20.0296C4.26756 20.0691 3.73423 20.0296 3.2009 19.9111C2.66756 19.7926 2.18361 19.5457 1.74904 19.1704C1.21571 18.7556 0.800896 18.2519 0.5046 17.6593C0.208303 17.0667 0.0502787 16.4741 0.0305256 15.8815C0.0107725 15.2889 0.0996614 14.6864 0.297192 14.0741C0.494723 13.4617 0.830526 12.9284 1.3046 12.4741L5.12682 8.65187C5.73917 8.03952 6.45028 7.5852 7.26016 7.2889C8.07003 6.99261 8.89966 6.91359 9.74904 7.05187C10.4997 7.17038 11.0923 7.38767 11.5268 7.70372C11.9614 8.01977 12.3071 8.3852 12.5639 8.80001C12.6034 8.89878 12.5984 8.97285 12.549 9.02224C12.4997 9.07162 12.4453 9.11606 12.3861 9.15557C12.3268 9.19508 12.2577 9.25434 12.1787 9.33335L11.9713 9.54075C11.7737 9.75804 11.5367 9.86668 11.2602 9.86668C10.9836 9.86668 10.7318 9.7531 10.5046 9.52594C10.2774 9.29878 10.0256 9.12594 9.74904 9.00742C9.4725 8.8889 9.16633 8.83952 8.83053 8.85927C8.49472 8.87903 8.19843 8.92841 7.94164 9.00742C7.68485 9.08643 7.41818 9.26421 7.14164 9.54075L2.75645 13.9259C2.49966 14.1827 2.31201 14.479 2.19349 14.8148C2.07497 15.1506 2.03546 15.4864 2.07497 15.8222C2.11448 16.158 2.21324 16.4938 2.37127 16.8296C2.52929 17.1654 2.78608 17.4321 3.14164 17.6296C3.63546 17.9654 4.1688 18.084 4.74164 17.9852C5.31448 17.8864 5.79843 17.6494 6.19349 17.2741L8.08978 15.4074C8.12929 15.3482 8.18855 15.3383 8.26756 15.3778C8.86016 15.6346 9.4725 15.8124 10.1046 15.9111ZM18.3416 0.918533C18.875 1.33335 19.2898 1.82717 19.5861 2.40001C19.8824 2.97285 20.0503 3.56545 20.0898 4.17779C20.1293 4.79014 20.0404 5.40248 19.8231 6.01483C19.6058 6.62717 19.2602 7.16051 18.7861 7.61483L14.9639 11.4371C14.3515 12.0494 13.6404 12.4938 12.8305 12.7704C12.0206 13.0469 11.1811 13.1259 10.312 13.0074C9.56139 12.9087 8.97867 12.6914 8.56386 12.3556C8.14904 12.0198 7.80337 11.6543 7.52682 11.2593C7.48732 11.1803 7.49719 11.1111 7.55645 11.0519L8.08978 10.5185C8.30707 10.321 8.55398 10.2222 8.83053 10.2222C9.10707 10.2222 9.34411 10.321 9.54164 10.5185C9.77867 10.7556 10.0453 10.9333 10.3416 11.0519C10.6379 11.1704 10.9441 11.2296 11.2602 11.2296C11.5762 11.2296 11.8824 11.1704 12.1787 11.0519C12.475 10.9333 12.7318 10.7556 12.949 10.5185L17.3342 6.16298C17.591 5.90619 17.7787 5.60001 17.8972 5.24446C18.0157 4.8889 18.0552 4.54322 18.0157 4.20742C17.9762 3.87162 17.8676 3.54569 17.6898 3.22964C17.512 2.91359 17.2552 2.64693 16.9194 2.42964C16.4453 2.11359 15.9219 1.99508 15.349 2.07409C14.7762 2.1531 14.2824 2.40001 13.8676 2.81483L12.0009 4.6815C11.9416 4.74075 11.8824 4.75063 11.8231 4.71113C11.27 4.47409 10.6577 4.28643 9.98608 4.14816C9.90707 4.14816 9.86756 4.10866 9.86756 4.02964C9.86756 3.95063 9.87744 3.90125 9.89719 3.8815L12.3565 1.42224C12.7515 1.02717 13.2058 0.711126 13.7194 0.474088C14.233 0.237051 14.7466 0.0889033 15.2602 0.029644C15.7737 -0.0296152 16.3071 0.0197675 16.8602 0.177792C17.4132 0.335817 17.9071 0.58273 18.3416 0.918533Z" fill="black"/>
</g>
<defs>
<clipPath id="clip0">
<rect width="20.15" height="24" fill="white"/>
</clipPath>
</defs>
</svg>
