<svg width="29" height="24" viewBox="0 0 29 24" fill="none" xmlns="http://www.w3.org/2000/svg">
<path d="M26.0378 8.25L24.4306 9.375V5.73214C24.4306 4.48214 23.9842 3.40179 23.0913 2.49107C22.1985 1.58036 21.1271 1.125 19.8771 1.125H8.41277C7.16277 1.125 6.09134 1.58036 5.19848 2.49107C4.30563 3.40179 3.8592 4.48214 3.8592 5.73214C3.8592 6.05357 3.96634 6.32143 4.18063 6.53571C4.39491 6.75 4.66277 6.85714 4.9842 6.85714C5.34134 6.85714 5.62705 6.75 5.84134 6.53571C6.05563 6.32143 6.16277 6.05357 6.16277 5.73214C6.16277 5.08929 6.38598 4.54464 6.83241 4.09821C7.27884 3.65179 7.80563 3.42857 8.41277 3.42857H19.8771C20.4842 3.42857 21.011 3.65179 21.4574 4.09821C21.9038 4.54464 22.1271 5.08929 22.1271 5.73214V9.26786L20.5199 8.08929C19.8413 7.69643 19.3235 7.82143 18.9663 8.46429C18.5378 9.14286 18.6449 9.67857 19.2878 10.0714L23.3056 12.5893L27.3771 10.0714C27.9842 9.67857 28.1092 9.14286 27.7521 8.46429C27.2163 7.92857 26.6449 7.85714 26.0378 8.25ZM23.3056 13.7143C22.9485 13.7143 22.6628 13.8214 22.4485 14.0357C22.2342 14.25 22.1271 14.5179 22.1271 14.8393C22.1271 15.4821 21.9038 16.0268 21.4574 16.4732C21.011 16.9196 20.4842 17.1429 19.8771 17.1429H8.41277C7.80563 17.1429 7.27884 16.9196 6.83241 16.4732C6.38598 16.0268 6.16277 15.4821 6.16277 14.8393V11.3036L7.76991 12.4821C7.84134 12.4821 7.94848 12.5 8.09134 12.5357C8.2342 12.5714 8.34134 12.5893 8.41277 12.5893C8.69848 12.5893 9.00205 12.4286 9.32348 12.1071C9.75205 11.4286 9.64491 10.8929 9.00205 10.5L4.9842 7.98214L0.912768 10.5C0.305625 10.8929 0.180625 11.4286 0.537768 12.1071C0.930625 12.7143 1.46634 12.8393 2.14491 12.4821L3.75205 11.3036V14.8393C3.75205 16.0893 4.19848 17.1696 5.09134 18.0804C5.9842 18.9911 7.05563 19.4464 8.30563 19.4464H19.7699C21.0199 19.4464 22.0913 18.9911 22.9842 18.0804C23.8771 17.1696 24.3235 16.0893 24.3235 14.8393C24.3592 14.5179 24.2788 14.25 24.0824 14.0357C23.886 13.8214 23.6271 13.7143 23.3056 13.7143Z" fill="black"/>
</svg>
